<svg xmlns="http://www.w3.org/2000/svg" viewBox="0 0 200 200">
  <g fill="#FFFFFF">
    <path d="M100 30c2.8 0 5 2.2 5 5s-2.2 5-5 5-5-2.2-5-5 2.2-5 5-5z"/>
    <path d="M150 130H50c-1.7 0-3-1.3-3-3s1.3-3 3-3h100c1.7 0 3 1.3 3 3s-1.3 3-3 3z"/>
    <rect x="95" y="35" width="10" height="25"/>
    <path d="M60 120c-11 0-20-9-20-20s9-20 20-20h80c11 0 20 9 20 20s-9 20-20 20"/>
    <path d="M150 100c0 11-9 20-20 20H70c-11 0-20-9-20-20s9-20 20-20h60c11 0 20 9 20 20z" fill="none" stroke="#FFFFFF" stroke-width="4"/>
    <path d="M40 100L20 60h160l-20 40" fill="none" stroke="#FFFFFF" stroke-width="4"/>
    <circle cx="100" cy="100" r="25" fill="none" stroke="#FFFFFF" stroke-width="8"/>
    <path d="M120 120l20 20" stroke="#FFFFFF" stroke-width="8" stroke-linecap="round"/>
    <rect x="50" y="130" width="100" height="25" rx="5" ry="5"/>
    <rect x="60" y="140" width="80" height="5" rx="2" ry="2"/>
    <rect x="60" y="150" width="60" height="5" rx="2" ry="2"/>
  </g>
</svg>